<svg id="Capa_1" data-name="Capa 1" xmlns="http://www.w3.org/2000/svg" viewBox="0 0 103.91 13.59"><defs><style>.cls-1{fill:#3852a0;}</style></defs><path class="cls-1" d="M6.16,15.76.62,2.56H4.1l3.27,8.56,3.26-8.56h3.48L8.57,15.76Z" transform="translate(-0.62 -2.43)"/><path class="cls-1" d="M17.73,16a3.87,3.87,0,0,1-2.05-.56,4.21,4.21,0,0,1-1.47-1.55,4.63,4.63,0,0,1-.54-2.26,4.59,4.59,0,0,1,.52-2.21,4,4,0,0,1,1.43-1.55,3.9,3.9,0,0,1,2.11-.57,4.08,4.08,0,0,1,1.48.26,3.48,3.48,0,0,1,1.18.74V7.57h2.92v8.19H20.39v-.84a4.16,4.16,0,0,1-1.25.82A3.58,3.58,0,0,1,17.73,16Zm.88-2.47a1.8,1.8,0,0,0,.95-.25,1.68,1.68,0,0,0,.65-.67,2,2,0,0,0,0-1.92,1.7,1.7,0,0,0-.66-.67,1.74,1.74,0,0,0-.94-.25,1.77,1.77,0,0,0-.95.25,1.87,1.87,0,0,0-.67.67,2,2,0,0,0,0,1.92,1.77,1.77,0,0,0,.66.67A1.81,1.81,0,0,0,18.61,13.55Z" transform="translate(-0.62 -2.43)"/><path class="cls-1" d="M29.93,16a4.62,4.62,0,0,1-1.78-.34,4.75,4.75,0,0,1-1.48-.93,4.29,4.29,0,0,1-1-1.39,3.85,3.85,0,0,1-.37-1.68A4,4,0,0,1,25.65,10a4.5,4.5,0,0,1,2.43-2.37,4.82,4.82,0,0,1,1.84-.35,5.16,5.16,0,0,1,1.51.22,3.54,3.54,0,0,1,1.17.54l-1,2a2,2,0,0,0-1.24-.36,2,2,0,0,0-1.12.3,1.85,1.85,0,0,0-.66.76,2,2,0,0,0-.22.92,1.93,1.93,0,0,0,.25,1,1.79,1.79,0,0,0,.7.72,2,2,0,0,0,1.07.27,2.26,2.26,0,0,0,.69-.1,1.87,1.87,0,0,0,.53-.25l1,2a4.18,4.18,0,0,1-1.16.54A5,5,0,0,1,29.93,16Z" transform="translate(-0.62 -2.43)"/><path class="cls-1" d="M38.29,16a4.62,4.62,0,0,1-1.78-.34A4.75,4.75,0,0,1,35,14.75a4.29,4.29,0,0,1-1-1.39,3.85,3.85,0,0,1-.37-1.68A4,4,0,0,1,34,10a4.5,4.5,0,0,1,2.43-2.37,4.82,4.82,0,0,1,1.84-.35,5.16,5.16,0,0,1,1.51.22A3.54,3.54,0,0,1,41,8.08l-1,2a2,2,0,0,0-1.24-.36,2,2,0,0,0-1.12.3,1.85,1.85,0,0,0-.66.76,2,2,0,0,0-.22.92,1.93,1.93,0,0,0,.25,1,1.79,1.79,0,0,0,.7.72,2,2,0,0,0,1.07.27,2.26,2.26,0,0,0,.69-.1,1.87,1.87,0,0,0,.53-.25l1,2a4.18,4.18,0,0,1-1.16.54A5,5,0,0,1,38.29,16Z" transform="translate(-0.62 -2.43)"/><path class="cls-1" d="M44.23,5.84a1.74,1.74,0,0,1-.87-.23A1.65,1.65,0,0,1,42.75,5a1.58,1.58,0,0,1-.23-.86,1.55,1.55,0,0,1,.23-.85,1.67,1.67,0,0,1,1.48-.85,1.67,1.67,0,0,1,.85.23,1.81,1.81,0,0,1,.61.62,1.57,1.57,0,0,1,.23.85,1.58,1.58,0,0,1-.23.86,1.73,1.73,0,0,1-.61.62A1.67,1.67,0,0,1,44.23,5.84Zm-1.46,9.92V7.57h2.92v8.19Z" transform="translate(-0.62 -2.43)"/><path class="cls-1" d="M48.45,15.76V7.57h2.92V8.4a3.93,3.93,0,0,1,1.23-.79,3.88,3.88,0,0,1,1.52-.29,3.25,3.25,0,0,1,1.66.42,3.07,3.07,0,0,1,1.15,1.14,3.18,3.18,0,0,1,.43,1.68v5.2H54.44V11.19A1.58,1.58,0,0,0,54,10a1.44,1.44,0,0,0-1.11-.43,1.62,1.62,0,0,0-.81.19,1.31,1.31,0,0,0-.54.53,1.61,1.61,0,0,0-.19.78v4.67Z" transform="translate(-0.62 -2.43)"/><path class="cls-1" d="M63.36,16a3.87,3.87,0,0,1-2-.56,4.29,4.29,0,0,1-1.47-1.55,4.63,4.63,0,0,1-.54-2.26,4.59,4.59,0,0,1,.52-2.21,4,4,0,0,1,1.43-1.55,3.9,3.9,0,0,1,2.11-.57,4.08,4.08,0,0,1,1.48.26A3.39,3.39,0,0,1,66,8.32V7.57h2.92v8.19H66v-.84a4.16,4.16,0,0,1-1.25.82A3.58,3.58,0,0,1,63.36,16Zm.88-2.47a1.8,1.8,0,0,0,1-.25,1.77,1.77,0,0,0,.66-.67,2,2,0,0,0,.23-1,1.9,1.9,0,0,0-.24-1,1.75,1.75,0,0,0-.65-.67,1.8,1.8,0,0,0-1-.25,1.77,1.77,0,0,0-.95.25,1.87,1.87,0,0,0-.67.67,2,2,0,0,0,0,1.92,1.77,1.77,0,0,0,.66.67A1.81,1.81,0,0,0,64.24,13.55Z" transform="translate(-0.62 -2.43)"/><path class="cls-1" d="M74.71,16a2.6,2.6,0,0,1-2.07-.84,3.44,3.44,0,0,1-.74-2.34V9.79H70.7V7.57h1.2V4.5h2.91V7.57h1.72V9.79H74.81v2.83a1,1,0,0,0,.16.59.53.53,0,0,0,.46.2,1.13,1.13,0,0,0,.69-.25l.74,2.33a4.15,4.15,0,0,1-1,.39A4.33,4.33,0,0,1,74.71,16Z" transform="translate(-0.62 -2.43)"/><path class="cls-1" d="M80.36,5.84a1.7,1.7,0,0,1-.86-.23,1.71,1.71,0,0,1-.85-1.48,1.64,1.64,0,0,1,.23-.85,1.75,1.75,0,0,1,.62-.62,1.7,1.7,0,0,1,.86-.23,1.64,1.64,0,0,1,.85.23,1.84,1.84,0,0,1,.62.62,1.7,1.7,0,0,1,0,1.71,1.75,1.75,0,0,1-.62.62A1.64,1.64,0,0,1,80.36,5.84ZM78.9,15.76V7.57h2.92v8.19Z" transform="translate(-0.62 -2.43)"/><path class="cls-1" d="M88.74,16a5.37,5.37,0,0,1-2.49-.56,4.38,4.38,0,0,1-1.76-1.53,3.94,3.94,0,0,1-.65-2.26,3.94,3.94,0,0,1,.65-2.26,4.4,4.4,0,0,1,1.76-1.54,5.48,5.48,0,0,1,2.48-.55,5.54,5.54,0,0,1,2.51.55A4.47,4.47,0,0,1,93,9.41a4,4,0,0,1,.65,2.26A4,4,0,0,1,93,13.93a4.45,4.45,0,0,1-1.76,1.53A5.41,5.41,0,0,1,88.74,16Zm0-2.48a1.84,1.84,0,0,0,.93-.24,1.77,1.77,0,0,0,.67-.66,1.82,1.82,0,0,0,.25-1,1.86,1.86,0,0,0-.25-1,1.77,1.77,0,0,0-.67-.66,2,2,0,0,0-1.86,0,1.84,1.84,0,0,0-.67.66,2,2,0,0,0-.25,1,1.92,1.92,0,0,0,.25,1,1.83,1.83,0,0,0,1.6.9Z" transform="translate(-0.62 -2.43)"/><path class="cls-1" d="M95.63,15.76V7.57h2.92V8.4a4,4,0,0,1,2.74-1.08,3.29,3.29,0,0,1,1.67.42,3.14,3.14,0,0,1,1.15,1.14,3.27,3.27,0,0,1,.42,1.68v5.2h-2.92V11.19A1.62,1.62,0,0,0,101.2,10a1.46,1.46,0,0,0-1.12-.43,1.62,1.62,0,0,0-.81.19,1.29,1.29,0,0,0-.53.53,1.5,1.5,0,0,0-.19.78v4.67Z" transform="translate(-0.62 -2.43)"/></svg>