<svg xmlns="http://www.w3.org/2000/svg" fill="currentColor" class="bi bi-calendar-fill" viewBox="0 0 16 16" xmlns:xlink="http://www.w3.org/1999/xlink" xml:space="preserve" width="100%" height="100%"><path xmlns="http://www.w3.org/2000/svg" fill-rule="evenodd" d="M3.5 0a.5.5 0 0 1 .5.5V1a.5.5 0 0 1-1 0V.5a.5.5 0 0 1 .5-.5zm9 0a.5.5 0 0 1 .5.5V1a.5.5 0 0 1-1 0V.5a.5.5 0 0 1 .5-.5z" style="fill: rgb(46, 78, 204);"></path><path xmlns="http://www.w3.org/2000/svg" d="M2 1a2 2 0 0 0-2 2v1h16V3a2 2 0 0 0-2-2H2zm14 4H0v9a2 2 0 0 0 2 2h12a2 2 0 0 0 2-2V5z" style="fill: rgb(46, 78, 204);"></path></svg>