<?xml version="1.0" encoding="utf-8"?>
<!-- Generator: Adobe Illustrator 25.0.1, SVG Export Plug-In . SVG Version: 6.00 Build 0)  -->
<svg version="1.1" id="Capa_1" xmlns="http://www.w3.org/2000/svg" xmlns:xlink="http://www.w3.org/1999/xlink" x="0px" y="0px"
	 viewBox="0 0 512 512" style="enable-background:new 0 0 512 512;" xml:space="preserve">
<style type="text/css">
	.st0{fill:#2E4ECC;}
</style>
<path class="st0" d="M0.1,184.4C-2.2,244.2,23,298,64,334.9V512h160l0-195.5L3.7,156.2C1.9,165.4,0.5,174.8,0.1,184.4z M336,368h160
	l16-48H256.9l0,192h145.9c27.5,0,52-17.6,60.7-43.8l0.5-4.2H336.9c-8.8,0-16-7.2-16-16c0-8.8,7.2-16,16-16h138.7l10.7-32H337
	c-8.8,0-16-7.2-16-16C320,375.2,327.2,368,336,368z M509.2,275c-20.1-47.1-48.5-151.8-73.1-186.8C397.6,33.6,334.5,0,266.1,0H200
	C117.1,0,42.5,50.6,13.2,123.7L239.2,288h272.6C511.8,283.7,511.1,279.3,509.2,275z M352,224c-17.6,0-32-14.4-32-32s14.4-32,32-32
	s31.1,14.4,31.1,32S369.6,224,352,224z"/>
</svg>
