<?xml version="1.0" encoding="utf-8"?>
<!-- Generator: Adobe Illustrator 25.0.1, SVG Export Plug-In . SVG Version: 6.00 Build 0)  -->
<svg version="1.1" id="Capa_1" xmlns="http://www.w3.org/2000/svg" xmlns:xlink="http://www.w3.org/1999/xlink" x="0px" y="0px"
	 viewBox="0 0 48 48" style="enable-background:new 0 0 48 48;" xml:space="preserve">
<style type="text/css">
	.st0{fill-rule:evenodd;clip-rule:evenodd;fill:#2D4CCB;}
</style>
<path class="st0" d="M6.8,12.9c-0.5,0.5-0.5,1.2,0,1.6C7.3,15,8,15,8.5,14.5l0.8-0.8l4.1,4.1L10.1,21c-0.5,0.5-0.5,1.2,0,1.6
	c0.5,0.5,1.2,0.5,1.6,0l1.6-1.6l3,3H8.4c-0.6,0-1.2,0.3-1.7,0.7C6.3,25.2,6,25.8,6,26.4V30c0,2.8,0.9,5.5,2.7,7.7
	c1.7,2.2,4.1,3.7,6.8,4.3c2.7-0.6,5.1-2.1,6.8-4.3c1.2-1.5,2-3.3,2.4-5.2l2.5,2.5c1.7,1.7,4.1,2.1,6.2,1.3l1.2,1.2
	c0.6,0.6,1.5,0.8,2.2,0.6l2.7,2.7c0.5,0.5,1.2,0.5,1.6,0c0.5-0.5,0.5-1.2,0-1.6l-2.7-2.7c0.2-0.8,0-1.6-0.6-2.2L36.8,33
	c0.2-0.5,0.3-1.1,0.4-1.6c0-0.4,0-0.8,0-1.2c-0.2-1.2-0.7-2.4-1.6-3.4L21.5,12.9l1.6-1.6c0.5-0.5,0.5-1.2,0-1.6
	c-0.5-0.5-1.2-0.5-1.6,0l-3.3,3.3l-4.1-4.1L15,8c0.5-0.5,0.5-1.2,0-1.6c-0.5-0.5-1.2-0.5-1.6,0L6.8,12.9z M26.5,31.4l5.4-5.4
	L20.1,14.3l-5.4,5.4l4.4,4.4h3.5c0.6,0,1.2,0.3,1.7,0.7c0.4,0.5,0.7,1.1,0.7,1.7v3.5L26.5,31.4z M16.9,14.3l-4.1-4.1l-2.1,2.1
	l4.1,4.1L16.9,14.3z M35.7,34.7c-0.1,0.1-0.1,0.2-0.2,0.2c-0.1,0.1-0.2,0.1-0.2,0.2l0.8,0.8c0.1,0.1,0.3,0.1,0.4,0s0.1-0.3,0-0.4
	L35.7,34.7z M33.5,27.7l0.5,0.5c0.6,0.6,1,1.4,1.1,2.2c0,0.3,0,0.6,0,0.9c0,0.4-0.1,0.7-0.2,1.1l-2.1,2.1c-1.4,0.5-3,0.3-4.1-0.8
	L28.2,33L33.5,27.7z M17,29c0-0.6-0.4-1-1-1c-0.6,0-1,0.4-1,1v2h-2c-0.6,0-1,0.4-1,1c0,0.6,0.4,1,1,1h2v2c0,0.6,0.4,1,1,1
	c0.6,0,1-0.4,1-1v-2h2c0.6,0,1-0.4,1-1c0-0.6-0.4-1-1-1h-2V29z"/>
</svg>
