<?xml version="1.0" encoding="utf-8"?>
<!-- Generator: Adobe Illustrator 25.0.1, SVG Export Plug-In . SVG Version: 6.00 Build 0)  -->
<svg version="1.1" id="Capa_1" xmlns="http://www.w3.org/2000/svg" xmlns:xlink="http://www.w3.org/1999/xlink" x="0px" y="0px"
	 viewBox="0 0 48 48" style="enable-background:new 0 0 48 48;" xml:space="preserve">
<style type="text/css">
	.st0{fill-rule:evenodd;clip-rule:evenodd;fill:#2E4ECC;stroke:#2E4ECC;stroke-miterlimit:10;}
	.st1{fill:#2E4ECC;stroke:#2E4ECC;stroke-width:2;}
</style>
<path class="st0" d="M41.2,13.4c0.5,0.5,0.5,1.2,0,1.6c-0.5,0.5-1.2,0.5-1.6,0l-0.8-0.8l-4.1,4.1l3.3,3.3c0.5,0.5,0.5,1.2,0,1.6
	c-0.5,0.5-1.2,0.5-1.6,0l-1.6-1.6L20.7,35.5c-1.7,1.7-4.1,2.1-6.2,1.3l-1.2,1.2c-0.6,0.6-1.5,0.8-2.2,0.6l-2.7,2.7
	c-0.5,0.5-1.2,0.5-1.6,0s-0.5-1.2,0-1.6l2.7-2.7c-0.2-0.8,0-1.6,0.6-2.2l1.2-1.2c-0.8-2.1-0.4-4.5,1.3-6.2l13.9-13.9l-1.6-1.6
	c-0.5-0.5-0.5-1.2,0-1.6c0.5-0.5,1.2-0.5,1.6,0l3.3,3.3l4.1-4.1L33,8.5c-0.5-0.5-0.5-1.2,0-1.6c0.5-0.5,1.2-0.5,1.6,0L41.2,13.4z
	 M31.1,14.8l4.1-4.1l2.1,2.1l-4.1,4.1L31.1,14.8z M27.9,14.8l5.4,5.4l-4.4,4.4l-5.4-5.4L27.9,14.8z M27.2,26.2l-2.5,2.5
	c-1.4,1.4-0.4,0.4-1.6,1.6l-1.6,1.6c-1.1,1.1-0.8,0.8-1.6,1.6L19.3,34c-1.1,1.1-2.7,1.4-4.1,0.8l-2.1-2.1c-0.5-1.4-0.3-3,0.8-4.1
	l7.9-7.9L27.2,26.2z M11.5,36.1C11.5,36.1,11.5,36.1,11.5,36.1l0.9-0.9c0.1,0.1,0.1,0.2,0.2,0.2c0.1,0.1,0.2,0.1,0.2,0.2l-0.8,0.8
	c0,0,0,0,0,0c-0.1-0.1-0.1-0.2-0.2-0.3C11.7,36.2,11.6,36.1,11.5,36.1z"/>
<path class="st1" d="M38.7,12.8l0.7,0.7l0.8,0.8c0.1,0.1,0.2,0.1,0.2,0c0.1-0.1,0.1-0.2,0-0.2l-6.5-6.5l0.7-0.7l-0.7,0.7
	c-0.1-0.1-0.2-0.1-0.2,0c-0.1,0.1-0.1,0.2,0,0.2l0.8,0.8l0.7,0.7l0.7,0.7l2.1,2.1L38.7,12.8z M33.9,19l-0.7-0.7l-0.7-0.7l-2.1-2.1
	l-0.7-0.7L29,14.1l-3.3-3.3c-0.1-0.1-0.2-0.1-0.2,0c-0.1,0.1-0.1,0.2,0,0.2l1.6,1.6l0.7,0.7l0.7,0.7l5.4,5.4l0.7,0.7l0.7,0.7
	l1.6,1.6c0.1,0.1,0.2,0.1,0.2,0c0.1-0.1,0.1-0.2,0-0.2L33.9,19z M26.1,28.6l2.6-2.6l-0.1-0.1l0.9-0.7c0.1-0.1,0.3-0.2,0.4-0.3
	c-0.2,0.2-0.4,0.4-0.7,0.5l-0.7,0.4L28,25.3L22.7,20l-0.6-0.6l0.4-0.7c0.2-0.2,0.3-0.5,0.5-0.7c-0.1,0.1-0.2,0.3-0.3,0.4l-0.7,0.9
	L22,19.2L13.3,28c-1.4,1.4-1.7,3.4-1.1,5.1l0.2,0.6L12,34.2l-1.2,1.2c-0.3,0.3-0.5,0.8-0.3,1.3l0.1,0.6l-0.4,0.4l-2.7,2.7
	c-0.1,0.1-0.1,0.2,0,0.2c0.1,0.1,0.2,0.1,0.2,0l2.7-2.7l0.4-0.4l0.6,0.1c0.4,0.1,0.9,0,1.3-0.3l1.2-1.2l0.5-0.5l0.6,0.2
	c1.6,0.6,3.5,0.3,4.9-0.9l-2.6-2.6c-0.8-0.8-0.8-2.2,0-3.1L18,30l-0.7-0.7c0.8-0.8,2.2-0.8,3.1,0l2.6,2.6l0.2-0.2l-2.6-2.6
	c-0.8-0.8-0.8-2.2,0-3.1s2.2-0.8,3.1,0L26.1,28.6z"/>
</svg>
