<?xml version="1.0" encoding="utf-8"?>
<!-- Generator: Adobe Illustrator 25.0.1, SVG Export Plug-In . SVG Version: 6.00 Build 0)  -->
<svg version="1.1" id="Capa_1" xmlns="http://www.w3.org/2000/svg" xmlns:xlink="http://www.w3.org/1999/xlink" x="0px" y="0px"
	 viewBox="0 0 640 512" style="enable-background:new 0 0 640 512;" xml:space="preserve">
<style type="text/css">
	.st0{fill:#2E4ECC;}
</style>
<path class="st0" d="M622.3,271.1l-115.1-45c-4.1-1.6-12.6-3.8-22.2,0l-115.1,45c-10.8,4.1-17.8,14-17.8,24
	c0,111.6,68.8,188.8,132.9,213.9c9.6,3.8,18,1.6,22.2,0C558.4,489.9,640,420.5,640,295.1C640,285.1,633,275.2,622.3,271.1z
	 M496,462.4V273.2l95.5,37.4C585.9,397.8,530.6,446,496,462.4z M224,256c70.7,0,128-57.3,128-128S294.7,0,224,0S96,57.3,96,128
	S153.3,256,224,256z M320.6,310.3c-14.7-4-30-6.3-45.9-6.3H173.3C77.6,304,0,381.7,0,477.4C0,496.5,15.5,512,34.7,512h378.6
	c3.1,0,6-1,8.9-1.8C369.7,469.8,324.1,400.3,320.6,310.3z"/>
</svg>
